<?xml version="1.0"?>
<svg viewBox="0 0 666.79998 226.86999" xmlns="http://www.w3.org/2000/svg">
<g style="fill:#000">
    <path d="M 0,26.52 C 0,15.36 8.73,6.33 20.18,6.33 c 11.45,0 20.19,9.04 20.19,20.19 0,11.15 -9.04,20.19 -20.19,20.19 C 9.03,46.71 0,37.96 0,26.52 m 4.82,190.11 2.71,4.52 h 25.61 l 2.71,-4.52 V 78.94 L 33.14,74.42 H 7.53 l -2.71,4.52 z"/>
    <polygon points="144.01,126.54 146.72,129.25 146.72,154.87 144.01,157.58 65.06,157.58 62.35,154.87 62.35,129.25 65.06,126.54 "/>
    <path d="M 291.63,4.52 294.34,0 h 26.82 l 2.71,4.52 v 212.11 l -2.71,4.52 h -26.82 l -2.71,-4.82 v -9.04 h -3.01 c -11.75,11.75 -26.82,19.58 -43.69,19.58 -41.28,0 -72.91,-34.65 -72.91,-76.83 0,-42.18 32.54,-79.84 72.61,-79.84 17.48,0 32.24,6.62 43.99,16.57 l 3.01,-2.11 z m -44.59,192.83 c 24.71,0 43.99,-15.67 44.89,-46.4 0.91,-32.24 -20.78,-49.71 -45.49,-49.71 -24.71,0 -42.48,23.2 -42.48,49.41 0,26.21 18.98,46.7 43.09,46.7"/>
    <polygon points="356.09,4.52 358.8,0 386.82,0 389.53,4.52 389.53,216.63 386.82,221.15 358.8,221.15 356.09,216.63 "/>
    <path d="m 552.52,186.5 0.3,5.12 c -15.37,27.72 -40.37,35.25 -66.59,35.25 -44.89,0 -73.51,-37.66 -73.51,-78.64 0,-40.98 31.34,-78.33 73.51,-78.33 42.17,0 74.12,34.04 73.52,79.54 l -6.93,10.85 H 450.38 l -2.71,4.52 c 3.31,17.78 17.78,31.33 40.07,31.93 16.27,0.31 32.24,-7.53 39.17,-19.58 l 4.52,-2.71 z m -103.94,-57.85 2.71,4.52 H 523 l 2.71,-4.52 c -3.32,-16.27 -21.09,-28.62 -39.77,-28.62 -18.68,0 -34.35,12.35 -37.36,28.62"/>
    <polygon points="589.79,0 573.19,9.58 572.09,13.7 589.39,42.58 555.97,42.03 553.06,44.95 553.06,63.14 555.97,66.05 602.78,65.28 625.94,106.98 630.06,108.08 646.66,98.5 647.77,94.38 630.46,65.5 663.89,66.05 666.8,63.14 666.8,44.95 663.89,42.03 630.46,42.58 647.77,13.7 646.66,9.58 630.06,0 625.94,1.1 609.93,29.93 593.92,1.1 "/>
</g>
</svg>